<svg width="1280" height="760" viewBox="0 0 1280 760" fill="none" xmlns="http://www.w3.org/2000/svg">
  <rect width="1280" height="760" fill="#080d18"/>
  <rect width="156" height="760" fill="#111827"/>
  <text x="28" y="34" fill="#e5e7eb" font-family="Arial" font-size="18" font-weight="700">GEOMODI</text>
  <rect x="8" y="104" width="140" height="34" rx="6" fill="#252b46" stroke="#9ca3af"/>
  <text x="22" y="126" fill="#9aa7ff" font-family="Arial" font-size="11" font-weight="700">Lista de Picking</text>
  <text x="22" y="166" fill="#bfdbfe" font-family="Arial" font-size="11">Tiendanube</text>
  <text x="22" y="198" fill="#bfdbfe" font-family="Arial" font-size="11">Colecta</text>
  <rect x="156" width="1124" height="58" fill="#161b29"/>
  <text x="190" y="28" fill="#f8fafc" font-family="Arial" font-size="16" font-weight="700">Lista de Picking</text>
  <text x="300" y="92" fill="#8891ff" font-family="Arial" font-size="10" font-weight="800" letter-spacing="2">OPERACION DIARIA</text>
  <text x="300" y="122" fill="#f8fafc" font-family="Arial" font-size="26" font-weight="800">Lista de Picking Tiendanube</text>
  <text x="300" y="148" fill="#64748b" font-family="Arial" font-size="13">Productos a preparar, priorizados por unidades pendientes.</text>
  <rect x="300" y="186" width="250" height="68" rx="10" fill="#1a2030" stroke="#293347"/>
  <text x="320" y="222" fill="#7c83ff" font-family="Arial" font-size="32" font-weight="800">128</text><text x="320" y="240" fill="#64748b" font-family="Arial" font-size="10" font-weight="700">UNIDADES TOTALES</text>
  <rect x="565" y="186" width="250" height="68" rx="10" fill="#1a2030" stroke="#293347"/>
  <text x="585" y="222" fill="#f8fafc" font-family="Arial" font-size="30" font-weight="800">36</text><text x="585" y="240" fill="#64748b" font-family="Arial" font-size="10" font-weight="700">PRODUCTOS</text>
  <rect x="830" y="186" width="250" height="68" rx="10" fill="#1a2030" stroke="#f59e0b"/>
  <text x="850" y="222" fill="#f8fafc" font-family="Arial" font-size="30" font-weight="800">42</text><text x="850" y="240" fill="#64748b" font-family="Arial" font-size="10" font-weight="700">PEDIDOS NUEVOS</text>
  <rect x="300" y="282" width="820" height="390" rx="10" fill="#121a2a" stroke="#263247"/>
  <rect x="300" y="282" width="4" height="390" fill="#f59e0b"/>
  <text x="320" y="315" fill="#f8fafc" font-family="Arial" font-size="17" font-weight="800">Pedido Tiendanube</text>
  <text x="320" y="336" fill="#64748b" font-family="Arial" font-size="11">36 productos · 128 unidades</text>
  <g font-family="Arial">
    <rect x="320" y="360" width="780" height="48" rx="6" fill="#141827" stroke="#20283a"/><text x="370" y="388" fill="#f8fafc" font-size="13" font-weight="700">Producto demo A - Variante Negro</text><text x="330" y="390" fill="#8b91ff" font-size="20" font-weight="800">8</text><text x="370" y="402" fill="#64748b" font-size="10">SKU: DEMO001 · 8 envios</text>
    <rect x="320" y="418" width="780" height="48" rx="6" fill="#141827" stroke="#20283a"/><text x="370" y="446" fill="#f8fafc" font-size="13" font-weight="700">Producto demo B - Variante Blanco</text><text x="330" y="448" fill="#8b91ff" font-size="20" font-weight="800">6</text><text x="370" y="460" fill="#64748b" font-size="10">SKU: DEMO002 · 6 envios</text>
    <rect x="320" y="476" width="780" height="48" rx="6" fill="#141827" stroke="#20283a"/><text x="370" y="504" fill="#f8fafc" font-size="13" font-weight="700">Producto demo C - Variante Azul</text><text x="330" y="506" fill="#8b91ff" font-size="20" font-weight="800">5</text><text x="370" y="518" fill="#64748b" font-size="10">SKU: DEMO003 · 5 envios</text>
    <rect x="320" y="534" width="780" height="48" rx="6" fill="#141827" stroke="#20283a"/><text x="370" y="562" fill="#f8fafc" font-size="13" font-weight="700">Producto demo D - Variante Verde</text><text x="330" y="564" fill="#8b91ff" font-size="20" font-weight="800">4</text><text x="370" y="576" fill="#64748b" font-size="10">SKU: DEMO004 · 4 envios</text>
    <rect x="320" y="592" width="780" height="48" rx="6" fill="#141827" stroke="#20283a"/><text x="370" y="620" fill="#f8fafc" font-size="13" font-weight="700">Producto demo E - Variante Gris</text><text x="330" y="622" fill="#8b91ff" font-size="20" font-weight="800">3</text><text x="370" y="634" fill="#64748b" font-size="10">SKU: DEMO005 · 3 envios</text>
  </g>
</svg>
