<svg width="1280" height="760" viewBox="0 0 1280 760" fill="none" xmlns="http://www.w3.org/2000/svg">
  <rect width="1280" height="760" fill="#080d18"/>
  <rect width="156" height="760" fill="#111827"/>
  <text x="28" y="34" fill="#e5e7eb" font-family="Arial" font-size="18" font-weight="700">GEOMODI</text>
  <text x="18" y="86" fill="#64748b" font-family="Arial" font-size="8" font-weight="700" letter-spacing="2">OPERACION</text>
  <rect x="8" y="210" width="140" height="34" rx="6" fill="#252b46"/>
  <text x="22" y="232" fill="#9aa7ff" font-family="Arial" font-size="11" font-weight="700">Dashboard</text>
  <text x="22" y="118" fill="#bfdbfe" font-family="Arial" font-size="11">Subir Etiquetas</text>
  <text x="22" y="150" fill="#bfdbfe" font-family="Arial" font-size="11">Lista de Picking</text>
  <text x="22" y="182" fill="#bfdbfe" font-family="Arial" font-size="11">Tiendanube</text>
  <rect x="156" width="1124" height="58" fill="#161b29"/>
  <text x="190" y="28" fill="#f8fafc" font-family="Arial" font-size="16" font-weight="700">Dashboard Tiendanube</text>
  <text x="190" y="44" fill="#64748b" font-family="Arial" font-size="10">demo@geomodi.com</text>
  <text x="190" y="100" fill="#f8fafc" font-family="Arial" font-size="24" font-weight="800">Resumen de envios</text>
  <text x="190" y="126" fill="#64748b" font-family="Arial" font-size="13">Pedidos recibidos por webhook desde Tiendanube</text>
  <rect x="190" y="154" width="1040" height="56" rx="10" fill="#121a2a" stroke="#263247"/>
  <rect x="204" y="166" width="64" height="30" rx="7" fill="#6b73ff"/>
  <text x="224" y="186" fill="#fff" font-family="Arial" font-size="11" font-weight="700">Hoy</text>
  <text x="286" y="186" fill="#e5e7eb" font-family="Arial" font-size="11">Semana</text>
  <text x="360" y="186" fill="#e5e7eb" font-family="Arial" font-size="11">Mes</text>
  <rect x="190" y="238" width="500" height="78" rx="10" fill="#1a2030" stroke="#293347"/>
  <rect x="710" y="238" width="520" height="78" rx="10" fill="#1a2030" stroke="#293347"/>
  <text x="515" y="278" fill="#7c83ff" font-family="Arial" font-size="34" font-weight="800">42</text>
  <text x="500" y="298" fill="#64748b" font-family="Arial" font-size="10" font-weight="700">ENVIOS</text>
  <text x="990" y="278" fill="#60a5fa" font-family="Arial" font-size="34" font-weight="800">128</text>
  <text x="1000" y="298" fill="#64748b" font-family="Arial" font-size="10" font-weight="700">UNIDADES</text>
  <rect x="190" y="344" width="330" height="320" rx="10" fill="#1a2030" stroke="#293347"/>
  <text x="210" y="374" fill="#f8fafc" font-family="Arial" font-size="16" font-weight="800">Por metodo</text>
  <text x="210" y="414" fill="#94a3b8" font-family="Arial" font-size="11">Colecta</text>
  <rect x="310" y="402" width="170" height="20" rx="10" fill="#f59e0b"/>
  <text x="462" y="416" fill="#fff" font-family="Arial" font-size="10" font-weight="700">34</text>
  <text x="210" y="454" fill="#94a3b8" font-family="Arial" font-size="11">Envio a domicilio</text>
  <rect x="310" y="442" width="120" height="20" rx="10" fill="#3b82f6"/>
  <rect x="540" y="344" width="330" height="320" rx="10" fill="#1a2030" stroke="#293347"/>
  <text x="560" y="374" fill="#f8fafc" font-family="Arial" font-size="16" font-weight="800">Por transportista</text>
  <text x="560" y="414" fill="#94a3b8" font-family="Arial" font-size="12">Transportista Demo A</text>
  <text x="560" y="454" fill="#94a3b8" font-family="Arial" font-size="12">Transportista Demo B</text>
  <text x="560" y="494" fill="#94a3b8" font-family="Arial" font-size="12">Sin asignar</text>
  <rect x="890" y="344" width="340" height="320" rx="10" fill="#1a2030" stroke="#293347"/>
  <text x="910" y="374" fill="#f8fafc" font-family="Arial" font-size="16" font-weight="800">Top provincias</text>
  <text x="910" y="414" fill="#94a3b8" font-family="Arial" font-size="11">Buenos Aires</text><rect x="1010" y="402" width="150" height="20" rx="10" fill="#3b82f6"/>
  <text x="910" y="454" fill="#94a3b8" font-family="Arial" font-size="11">Cordoba</text><rect x="1010" y="442" width="126" height="20" rx="10" fill="#3b82f6"/>
  <text x="910" y="494" fill="#94a3b8" font-family="Arial" font-size="11">Santa Fe</text><rect x="1010" y="482" width="96" height="20" rx="10" fill="#3b82f6"/>
</svg>
